<svg xmlns="http://www.w3.org/2000/svg" viewBox="0 0 452 452"><defs><style>.cls-1{fill:#009245;}.cls-2{fill:#fff;}</style></defs><g id="Layer_2" data-name="Layer 2"><g id="Layer_1-2" data-name="Layer 1"><rect class="cls-1" width="452" height="452" rx="50"/><path class="cls-2" d="M92.78,391.14a20.8,20.8,0,0,1-3.22,10.53,19.41,19.41,0,0,1-8.26,7.09,28.14,28.14,0,0,1-12.14,2.51q-11.26,0-17.73-7.34T45,383.21v-2.82a34.51,34.51,0,0,1,2.93-14.69A22.12,22.12,0,0,1,56.29,356,23.55,23.55,0,0,1,69,352.53q10.4,0,16.72,5.48t7.18,15.08H79.17c-.11-3.48-1-6-2.63-7.49s-4.16-2.28-7.54-2.28-5.93,1.28-7.53,3.85S59,373.82,59,379.45v4q0,9.13,2.29,13.06t7.91,3.93c3.17,0,5.58-.75,7.26-2.24s2.56-3.86,2.67-7.1Z"/><path class="cls-2" d="M97,388.86a25.06,25.06,0,0,1,2.47-11.32,17.72,17.72,0,0,1,7.1-7.63,21.38,21.38,0,0,1,10.87-2.66q9.54,0,15,5.9T138,389.22v.47q0,9.93-5.51,15.75t-14.93,5.83q-9.06,0-14.56-5.44T97.06,391.1Zm13.22.83q0,5.88,1.84,8.63a6.16,6.16,0,0,0,5.46,2.75q7.06,0,7.22-10.87v-1.34q0-11.42-7.3-11.41-6.63,0-7.18,9.84Z"/><path class="cls-2" d="M157.75,410.48H144.49V350.22h13.26Z"/><path class="cls-2" d="M179.84,410.48H166.58V350.22h13.26Z"/><path class="cls-2" d="M187.89,357.08a5.92,5.92,0,0,1,2-4.63,8.69,8.69,0,0,1,10.59,0,6.27,6.27,0,0,1,0,9.26,8.65,8.65,0,0,1-10.59,0A5.89,5.89,0,0,1,187.89,357.08Zm14,53.4H188.67V368h13.26Z"/><path class="cls-2" d="M227,394.75,233.71,368h13.93l-13.85,42.45H220.3L206.45,368h14Z"/><path class="cls-2" d="M271.61,411.27q-9.76,0-15.81-5.83t-6-15.16v-1.1a26.07,26.07,0,0,1,2.41-11.5,17.68,17.68,0,0,1,7.05-7.71,21.22,21.22,0,0,1,11-2.72q9,0,14.13,5.55t5.18,15.48v5.14H263.22a9.53,9.53,0,0,0,3.1,5.61,9.21,9.21,0,0,0,6.2,2,11.9,11.9,0,0,0,9.81-4.4l6,7.14a16.87,16.87,0,0,1-7,5.44A23.77,23.77,0,0,1,271.61,411.27Zm-1.49-33.82q-5.81,0-6.9,7.69h13.34v-1a6.6,6.6,0,0,0-1.61-4.93A6.42,6.42,0,0,0,270.12,377.45Z"/><path class="cls-2" d="M320.5,380l-4.35-.32q-6.24,0-8,3.93v26.87H294.92V368h12.4l.43,5.45q3.33-6.24,9.3-6.23a12.73,12.73,0,0,1,3.69.47Z"/><path class="cls-2" d="M322.86,388.94q0-10.08,4.35-15.89t12.16-5.8a12.2,12.2,0,0,1,9.58,4.47v-21.5h13.26v60.26H350.32l-.67-4.55a12.51,12.51,0,0,1-10.35,5.34,14.33,14.33,0,0,1-12-5.81Q322.85,399.66,322.86,388.94Zm13.22.83q0,11.3,6.59,11.3a6.51,6.51,0,0,0,6.28-3.69V381.21a6.34,6.34,0,0,0-6.2-3.76q-6.12,0-6.63,9.88Z"/><path class="cls-2" d="M390.26,411.27q-9.76,0-15.81-5.83t-6-15.16v-1.1a26.07,26.07,0,0,1,2.41-11.5,17.72,17.72,0,0,1,7-7.71,21.26,21.26,0,0,1,11-2.72q8.94,0,14.12,5.55t5.18,15.48v5.14H381.87A9.53,9.53,0,0,0,385,399a9.2,9.2,0,0,0,6.19,2,11.88,11.88,0,0,0,9.81-4.4l6,7.14a16.93,16.93,0,0,1-7,5.44A23.77,23.77,0,0,1,390.26,411.27Zm-1.49-33.82q-5.81,0-6.9,7.69h13.34v-1a6.6,6.6,0,0,0-1.61-4.93A6.44,6.44,0,0,0,388.77,377.45Z"/><path class="cls-2" d="M446.37,302.23c-11.52-32.09-26.49-60.48-44.48-84.37-20.55-27.28-45-48.59-72.61-63.34-30.73-16.4-65.48-24.71-103.3-24.71v20c145.25,0,207.16,131.68,222.22,245.63A50,50,0,0,1,398.63,452H402a50,50,0,0,0,50-50V319.09Q449.36,310.54,446.37,302.23ZM226,129.81c-4.42,0-8.93.11-13.42.33A184.77,184.77,0,0,0,116.74,162C92.45,178.45,70.62,201.34,51.84,230c-24.75,37.8-41.15,81-51.84,118.39V402a50,50,0,0,0,50,50h8.7A50,50,0,0,1,9.82,391.48C28.47,305.3,79.93,156.8,213.55,150.12q6.3-.31,12.41-.31h0Z"/><path class="cls-2" d="M226,129.81v20h0q-6.11,0-12.41.31C79.93,156.8,28.47,305.3,9.82,391.48A50,50,0,0,0,58.7,452H50A50,50,0,0,1,0,402V348.43C10.69,311.09,27.09,267.84,51.84,230c18.78-28.7,40.61-51.59,64.9-68.06a184.77,184.77,0,0,1,95.81-31.84C217,129.92,221.55,129.81,226,129.81Z"/><path class="cls-2" d="M452,319.09V402a50,50,0,0,1-50,50h-3.37a50,50,0,0,0,49.57-56.56c-15.06-113.95-77-245.63-222.22-245.63v-20c37.82,0,72.57,8.31,103.3,24.71,27.63,14.75,52.06,36.06,72.61,63.34,18,23.89,33,52.28,44.48,84.37Q449.36,310.54,452,319.09Z"/></g></g></svg>